#!OML:ASF F:\VICON\USERDATA\INSTALL\rory3\rory3.ASF
:FULLY-SPECIFIED
:DEGREES
225
root 13.5251 17.9139 8.40796 -3.07294 -18.9115 6.89538
lowerback 9.80914 0.558866 -3.33244
upperback 0.107451 0.317193 -0.773314
thorax -5.41053 0.231285 1.02336
lowerneck -19.0223 -7 -13.3737
upperneck 27.5658 -8.46094 8.59293
head 13.4543 -4.051 4.14691
rclavicle 2.74074e-014 -7.55382e-015
rhumerus -35.2895 -10.6139 -82.0641
rradius 36.5164
rwrist 4.27262
rhand -14.829 10.7611
rfingers 7.12502
rthumb 11.3297 -18.9129
lclavicle 2.74074e-014 -7.55382e-015
lhumerus -31.45 7.1564 78.9285
lradius 34.6588
lwrist -4.22255
lhand -20.7113 20.8763
lfingers 7.12502
lthumb 5.65307 50.7809
rfemur -20.0475 -13.964 27.6189
rtibia 26.7322
rfoot -11.6391 -22.2633
rtoes 35.742
lfemur 2.90115 6.76083 -22.5982
ltibia 30.9889
lfoot -5.69382 -0.401107
ltoes -26.152
226
root 13.4731 17.9195 8.48921 -3.16184 -20.145 6.83161
lowerback 9.74608 0.622996 -3.28492
upperback 0.125816 0.415019 -0.698764
thorax -5.36006 0.278262 1.06104
lowerneck -18.8713 -7.16406 -13.6131
upperneck 27.515 -8.73174 8.85614
head 13.4681 -4.16623 4.24309
rclavicle -1.87355e-014 -2.94201e-014
rhumerus -35.3076 -10.51 -82.0884
rradius 37.0849
rwrist 4.22467
rhand -14.8356 10.3013
rfingers 7.12502
rthumb 11.3234 -19.373
lclavicle -1.87355e-014 -2.94201e-014
lhumerus -31.7599 7.67707 78.9132
lradius 34.2534
lwrist -5.0952
lhand -19.171 25.6696
lfingers 7.12502
lthumb 7.14004 55.5292
rfemur -19.4149 -13.5935 27.8495
rtibia 26.4085
rfoot -11.5567 -21.5511
rtoes 35.3002
lfemur 2.21413 7.28683 -22.1266
ltibia 32.9003
lfoot -4.567 -1.36478
ltoes -25.3396
227
root 13.4203 17.9239 8.56571 -3.23372 -21.4084 6.71144
lowerback 9.68799 0.652453 -3.13903
upperback 0.190051 0.475878 -0.667533
thorax -5.26138 0.302824 1.00384
lowerneck -18.9975 -7.33966 -13.6324
upperneck 27.6477 -9.01578 8.95428
head 13.5984 -4.2793 4.23251
rclavicle 4.22417e-015 8.34896e-015
rhumerus -35.0299 -10.4664 -82.2215
rradius 37.2991
rwrist 4.21957
rhand -14.652 10.1093
rfingers 7.12502
rthumb 11.5004 -19.5552
lclavicle 4.22417e-015 8.34896e-015
lhumerus -31.9488 8.32943 78.8056
lradius 33.8064
lwrist -5.40363
lhand -18.7568 27.0816
lfingers 7.12502
lthumb 7.53993 56.9272
rfemur -18.8298 -13.3286 28.1628
rtibia 26.1644
rfoot -11.5388 -20.6612
rtoes 34.9677
lfemur 1.51705 7.72384 -21.5766
ltibia 34.7376
lfoot -3.03887 -2.50427
ltoes -24.7359
228
root 13.3697 17.9262 8.64012 -3.34124 -22.6621 6.67512
lowerback 9.74822 0.707285 -3.0041
upperback 0.211898 0.558526 -0.722537
thorax -5.2737 0.339183 0.858467
lowerneck -19.0701 -7.38759 -13.3098
upperneck 27.7367 -9.18297 8.89954
head 13.6518 -4.32552 4.12435
rclavicle 5.46161e-014 -3.57812e-015
rhumerus -34.8981 -10.5042 -82.3806
rradius 37.6759
rwrist 4.09252
rhand -14.1452 10.2162
rfingers 7.12502
rthumb 11.9891 -19.4205
lclavicle 5.46161e-014 -3.57812e-015
lhumerus -32.1779 8.6237 78.7422
lradius 33.5174
lwrist -5.1485
lhand -18.3634 27.5389
lfingers 7.12502
lthumb 7.91958 57.3706
rfemur -18.2183 -13.1147 28.3759
rtibia 25.9182
rfoot -11.5618 -19.7561
rtoes 34.6517
lfemur 0.843257 8.21346 -21.0942
ltibia 36.5357
lfoot -1.28998 -3.98164
ltoes -25.6233
229
root 13.3186 17.9259 8.70974 -3.51518 -23.8949 6.80875
lowerback 9.93773 0.762517 -3.17041
upperback 0.147608 0.603223 -0.728653
thorax -5.45148 0.367969 0.936786
lowerneck -18.8973 -7.31857 -13.0345
upperneck 27.6715 -9.17784 8.82931
head 13.5649 -4.3097 4.05193
rclavicle 7.85199e-015 -1.35174e-014
rhumerus -34.8609 -10.2179 -82.4505
rradius 38.0269
rwrist 3.82686
rhand -13.889 10.5769
rfingers 7.12502
rthumb 12.2361 -19.0452
lclavicle 7.85199e-015 -1.35174e-014
lhumerus -32.6557 8.92537 78.7715
lradius 33.3472
lwrist -5.18264
lhand -17.6406 28.8013
lfingers 7.12502
lthumb 8.6172 58.6054
rfemur -17.5934 -12.7087 28.4038
rtibia 25.6596
rfoot -11.6624 -19.0698
rtoes 34.6929
lfemur 0.122196 8.60448 -20.8062
ltibia 38.3238
lfoot 0.361523 -5.57089
ltoes -28.7984
230
root 13.2641 17.9257 8.77902 -3.61558 -24.9919 6.65926
lowerback 10.0789 0.720759 -3.1462
upperback 0.140727 0.550498 -0.620568
thorax -5.53677 0.343883 1.04254
lowerneck -18.7984 -7.24973 -12.8446
upperneck 27.6541 -9.15012 8.79814
head 13.5188 -4.28655 4.01399
rclavicle -4.44284e-014 7.55382e-015
rhumerus -34.6771 -9.8491 -82.5356
rradius 38.3203
rwrist 3.57679
rhand -13.7488 10.587
rfingers 7.12502
rthumb 12.3713 -19.0269
lclavicle -4.44284e-014 7.55382e-015
lhumerus -33.1542 9.29938 78.8204
lradius 33.2139
lwrist -5.46318
lhand -17.7501 29.2965
lfingers 7.12502
lthumb 8.51149 59.105
rfemur -16.8963 -12.3156 28.7106
rtibia 25.3228
rfoot -11.7326 -18.5968
rtoes 34.692
lfemur -0.633116 8.69147 -20.2294
ltibia 40.1416
lfoot 1.90122 -7.17868
ltoes -26.4208
